PathFileType	4	(X/Y/Z)	Kaydara	
DataRate	CameraRate	NumFrames	NumMarkers	Units	OrigDataRate	OrigDataStartFrame	OrigNumFrames	
240.00	240.00	4	72	mm	240.00	134	355	
Frame#	Time	Hips			RightUpLeg			RightLeg			RightFoot			RightFoot_End			LeftUpLeg			LeftLeg			LeftFoot			LeftFoot_End			Spine			Spine1			Spine2			Spine3			Neck			Head			Head_End			RightShoulder			RightArm			RightForeArm			RightHand			RightHandThumb1			RightHandThumb2			RightHandThumb3			RightHandThumb3_End			RightInHandIndex			RightHandIndex1			RightHandIndex2			RightHandIndex3			RightHandIndex3_End			RightInHandMiddle			RightHandMiddle1			RightHandMiddle2			RightHandMiddle3			RightHandMiddle3_End			RightInHandRing			RightHandRing1			RightHandRing2			RightHandRing3			RightHandRing3_End			RightInHandPinky			RightHandPinky1			RightHandPinky2			RightHandPinky3			RightHandPinky3_End			LeftShoulder			LeftArm			LeftForeArm			LeftHand			LeftHandThumb1			LeftHandThumb2			LeftHandThumb3			LeftHandThumb3_End			LeftInHandIndex			LeftHandIndex1			LeftHandIndex2			LeftHandIndex3			LeftHandIndex3_End			LeftInHandMiddle			LeftHandMiddle1			LeftHandMiddle2			LeftHandMiddle3			LeftHandMiddle3_End			LeftInHandRing			LeftHandRing1			LeftHandRing2			LeftHandRing3			LeftHandRing3_End			LeftInHandPinky			LeftHandPinky1			LeftHandPinky2			LeftHandPinky3			LeftHandPinky3_End			
		X1	Y1	Z1	X2	Y2	Z2	X3	Y3	Z3	X4	Y4	Z4	X5	Y5	Z5	X6	Y6	Z6	X7	Y7	Z7	X8	Y8	Z8	X9	Y9	Z9	X10	Y10	Z10	X11	Y11	Z11	X12	Y12	Z12	X13	Y13	Z13	X14	Y14	Z14	X15	Y15	Z15	X16	Y16	Z16	X17	Y17	Z17	X18	Y18	Z18	X19	Y19	Z19	X20	Y20	Z20	X21	Y21	Z21	X22	Y22	Z22	X23	Y23	Z23	X24	Y24	Z24	X25	Y25	Z25	X26	Y26	Z26	X27	Y27	Z27	X28	Y28	Z28	X29	Y29	Z29	X30	Y30	Z30	X31	Y31	Z31	X32	Y32	Z32	X33	Y33	Z33	X34	Y34	Z34	X35	Y35	Z35	X36	Y36	Z36	X37	Y37	Z37	X38	Y38	Z38	X39	Y39	Z39	X40	Y40	Z40	X41	Y41	Z41	X42	Y42	Z42	X43	Y43	Z43	X44	Y44	Z44	X45	Y45	Z45	X46	Y46	Z46	X47	Y47	Z47	X48	Y48	Z48	X49	Y49	Z49	X50	Y50	Z50	X51	Y51	Z51	X52	Y52	Z52	X53	Y53	Z53	X54	Y54	Z54	X55	Y55	Z55	X56	Y56	Z56	X57	Y57	Z57	X58	Y58	Z58	X59	Y59	Z59	X60	Y60	Z60	X61	Y61	Z61	X62	Y62	Z62	X63	Y63	Z63	X64	Y64	Z64	X65	Y65	Z65	X66	Y66	Z66	X67	Y67	Z67	X68	Y68	Z68	X69	Y69	Z69	X70	Y70	Z70	X71	Y71	Z71	X72	Y72	Z72	

134	0.554	-78.98710000000028	906.651	56.2195	3.984509999999318	897.50016	14.08925	-63.00656000000072	493.44086999999996	-72.94055	-81.84807	112.50869000000002	-151.52285	-156.55479000000014	37.80221999999999	7.777050000000001	-153.99481000000014	886.92763	109.62906999999998	-216.30337999999938	484.2452799999999	206.75462000000002	-243.8095400000002	55.449560000000005	308.95673	-377.5036399999999	-17.11147	193.20097999999996	-117.11489000000074	1035.37929	6.706529999999999	-160.63449000000037	1106.0124000000003	-43.90027	-210.04764000000068	1174.16064	-99.97706	-262.6848399999999	1230.17363	-159.45070000000004	-319.64429999999993	1290.1946799999998	-222.11644000000004	-372.93184999999994	1344.58943	-278.31262	-491.3993099999998	1437.46244	-331.0413	-275.05979000000025	1279.3198799999998	-216.25548	-193.04748999999993	1312.22146	-307.49450999999993	-92.33496000000014	1066.74487	-303.09763999999996	57.73696999999993	892.29411	-423.27864999999997	96.29680000000008	901.3315	-428.60651000000007	120.34042000000045	900.9553899999999	-456.49953	135.28361999999925	896.7079600000001	-476.82586999999995	146.20060000000012	889.7575800000001	-494.54240000000004	94.92512999999963	887.5723	-430.43546000000003	138.38512999999966	866.8788799999998	-452.91254000000004	160.37194	854.08837	-478.66068000000007	167.60336000000007	851.8725800000001	-497.7370600000001	169.24632999999994	853.9077099999998	-515.5965500000001	88.1221800000003	877.5291699999999	-432.58583	126.83438999999998	851.9126299999999	-455.6695399999999	149.77746000000025	836.6996100000001	-483.98933	157.9985400000005	833.42361	-507.1115199999999	159.55153000000064	835.3574199999999	-526.7051700000001	82.28758000000016	870.9152399999999	-433.4392199999999	112.15275999999994	842.0802299999999	-454.5977400000001	131.01602000000003	827.5775900000001	-479.47441000000003	138.34366000000045	823.7575900000002	-501.88010999999995	139.51846999999998	825.2630799999997	-520.35166	73.66793000000052	864.2583	-434.49836	96.03099999999995	833.5442400000001	-454.25548	109.23598999999922	820.1180800000001	-474.3853600000001	113.6617099999994	816.4547499999999	-490.82954000000007	114.17345000000023	817.2836399999998	-507.25068	-327.43426999999974	1261.35228	-184.96715999999998	-407.84180000000015	1176.7062399999995	-131.46801000000002	-210.04579000000012	1050.0247100000001	-253.30955000000003	-2.442320000000109	948.9787099999999	-370.69914000000006	12.794839999999567	962.3698499999999	-405.12918	29.04932000000008	947.75179	-434.76635	37.135629999999765	934.5065799999999	-455.10537999999997	41.11081000000013	920.84242	-471.80425	1.6149900000000343	954.62554	-408.2241499999999	0.09926999999970576	943.1588000000003	-460.0741699999999	4.318029999999453	924.4158900000001	-490.74809000000005	12.586919999999736	910.24215	-503.07051999999993	23.23953999999958	896.8098799999999	-508.7183500000001	-6.8756899999998495	946.17621	-405.34563	-12.948190000000068	930.4247200000001	-454.36313000000007	-9.453520000000026	908.8813599999997	-487.27972	-0.009480000000621658	891.25767	-501.88004000000006	11.387760000000526	876.3057799999999	-507.93037000000004	-12.91067000000021	940.5863399999998	-402.05209	-23.8110200000001	921.8719	-443.3076500000001	-21.887990000000173	902.00325	-471.35291000000007	-13.374789999999848	884.42422	-485.09354999999994	-2.9410900000002584	870.0910199999998	-490.62005999999997	-19.23167999999987	933.7908	-396.25552	-33.37841000000026	912.7247199999999	-430.75037000000003	-33.54232000000047	895.19295	-452.02137999999997	-28.156949999999597	881.58626	-461.46985999999987	-19.38871999999992	868.4379000000002	-466.03509999999994
135	0.558	-78.98710000000028	906.651	56.2195	3.9877699999997276	897.48399	14.099190000000004	-63.20988000000034	493.45954	-72.93307999999999	-81.96620999999959	112.51700000000001	-151.48554	-156.67602999999963	37.8185	7.81664	-153.99492999999984	886.95201	109.6379	-216.20171000000028	484.26764	206.82033	-243.80822999999964	55.470320000000015	308.9886400000001	-377.4991	-17.10505	193.23815000000002	-117.12895000000026	1035.34285	6.62271	-160.6204600000001	1105.97725	-44.00643999999999	-209.9962400000004	1174.1388800000002	-100.09986000000002	-262.5850899999996	1230.1869299999998	-159.58325000000005	-319.4942000000001	1290.24099	-222.2631	-372.75759000000016	1344.65097	-278.4674299999999	-491.2516000000005	1437.4142	-331.32954	-274.9130700000005	1279.3732	-216.36360000000002	-192.76289999999972	1312.3928899999999	-307.4357800000001	-91.40143999999964	1067.16385	-304.3244700000001	61.20222999999987	897.6499199999998	-428.32154999999995	99.52059999999983	907.6910699999999	-433.5940499999999	123.4607300000007	908.4366600000001	-461.56853	138.42180999999982	904.9482900000002	-482.0257399999999	149.4306400000005	898.61178	-499.91478000000006	98.46296000000075	893.9430399999999	-435.69527000000005	142.3079400000006	874.7260699999999	-458.72860000000003	164.48919999999998	862.97205	-484.80193999999995	171.6980399999993	861.3090400000001	-503.94295	173.22555999999986	863.7399100000001	-521.76316	91.88775999999962	883.78882	-438.02495999999996	131.09868000000006	859.55229	-461.74824	154.28263999999945	845.4508499999998	-490.4446700000001	162.4902600000005	842.8324400000002	-513.65528	163.92361999999957	845.1947200000001	-533.21104	86.20566000000053	877.0587899999999	-438.99208	116.65427999999974	849.3599300000001	-460.82609	135.75604999999996	835.80412	-486.05227	143.0858699999999	832.6066999999999	-508.55454000000003	144.15538000000015	834.5095300000002	-526.9958099999999	77.73951000000034	870.2248199999999	-440.15653	100.73718999999983	840.44436	-460.60242	114.17514999999912	827.7370300000001	-481.0423600000001	118.6227600000002	824.5087899999999	-497.57158	119.05289999999968	825.6787100000001	-513.97429	-327.31573000000026	1261.36834	-185.14395999999996	-407.78755999999976	1176.66181	-131.83758	-210.01791999999932	1050.88255	-254.65282	-2.2831700000006094	953.1882499999999	-374.61909	12.936080000000402	966.7373899999999	-408.99520000000007	28.60084999999981	952.19584	-438.98546	36.21283999999923	939.0711199999998	-459.58399	39.73816000000079	925.56493	-476.5108499999999	1.5618899999999485	959.2839500000001	-412.0961899999999	-0.6677200000003722	948.59928	-464.0873	2.86496999999963	930.2115899999999	-495.06143	10.710689999999886	916.0394899999999	-507.65934999999996	21.015309999999772	902.46071	-513.5951599999999	-7.086030000000392	950.9812499999999	-409.25937999999996	-13.939840000000004	936.0719400000002	-458.437	-11.212459999999737	914.93277	-491.6864800000001	-2.287930000000415	897.319	-506.62172	8.72417999999925	882.2106700000002	-512.98838	-13.212509999999384	945.47754	-405.98978999999997	-24.888520000000426	927.60001	-447.4039599999999	-23.652129999999488	908.09924	-475.74456	-15.649519999999939	890.53805	-489.81101000000007	-5.582430000000386	876.0616799999999	-495.63625	-19.62906000000021	938.73883	-400.2319600000001	-34.54176000000007	918.48409	-434.88971999999995	-35.279999999999745	901.26754	-456.40464000000003	-30.278909999999996	887.6838599999999	-466.09435	-21.842259999999442	874.4144200000001	-470.92628
136	0.563	-78.98710000000028	906.651	56.2195	3.9867599999997765	897.4630699999999	14.101749999999997	-63.41305999999986	493.47466999999995	-72.94157000000001	-82.03327999999965	112.52054999999999	-151.47024	-156.73906999999963	37.81787	7.831879999999998	-153.99155999999948	886.9805600000002	109.65314000000001	-216.10005	484.29463	206.89195000000004	-243.80159000000003	55.49239	309.01388	-377.4844199999998	-17.104070000000004	193.26732000000004	-117.13940000000002	1035.3091699999998	6.54342	-160.60539000000063	1105.9456500000003	-44.10472999999999	-209.94772000000012	1174.12089	-100.21105000000003	-262.49406999999974	1230.20292	-159.69996999999998	-319.3589499999998	1290.28882	-222.38945	-372.5999500000007	1344.7148100000002	-278.59950000000003	-491.10584000000017	1437.3817500000002	-331.60366	-274.78107999999975	1279.42497	-216.45819000000003	-192.51883999999973	1312.5437699999998	-307.39311999999995	-90.5664999999999	1067.5466499999998	-305.59403	64.40104999999949	903.07586	-433.3928800000001	102.45593000000008	914.09791	-438.61423000000013	126.25136999999995	915.9445599999999	-466.66104999999993	141.19983000000047	913.20463	-487.2410499999999	152.2735499999999	907.4764	-505.2944099999999	101.70472999999947	900.3731900000002	-440.9827700000001	145.87873000000036	882.6272299999999	-464.56129	168.21062999999958	871.9021200000001	-490.94769	175.3728000000001	870.78243	-510.14563999999996	176.76703999999972	873.5980199999999	-527.9200799999998	95.35407000000032	890.11818	-443.48729000000003	135.00738999999976	867.2618999999999	-467.83692999999994	158.38419000000067	854.26513	-496.89619	166.54915999999957	852.29355	-520.1856599999999	167.8433299999997	855.07258	-539.6962899999999	89.82365000000027	883.27952	-444.56528000000003	120.8046200000008	856.72369	-467.06053	140.10285000000022	844.11007	-492.62365	147.40661	841.52561	-515.21298	148.35238000000027	843.81508	-533.6170200000001	81.51147000000037	876.27678	-445.83181999999994	105.09727000000021	847.44153	-466.95153000000005	118.73448999999982	835.45149	-487.69065	123.18336999999974	832.6523599999999	-504.29759	123.51558999999997	834.15443	-520.6754999999999	-327.2078499999998	1261.3899799999997	-185.29648000000003	-407.7422200000001	1176.6357000000005	-132.16071999999997	-210.28947000000062	1052.6561400000003	-257.2939	-2.466440000000148	958.2984100000001	-379.75214	12.708669999999984	972.0308699999999	-414.07497	27.793620000000374	957.60884	-444.41811999999993	34.94383000000016	944.6313300000003	-465.27378	38.03458000000046	931.30256	-482.42473000000007	1.1557800000000498	964.8564000000001	-417.17335	-1.773639999999432	954.97315	-469.28810999999996	1.094319999999243	936.9676299999999	-500.55405999999994	8.530770000000302	922.8224699999998	-513.42749	18.499329999999645	909.1238900000001	-519.6547899999998	-7.63398000000052	956.6914299999999	-414.37297	-15.247040000000197	942.6383500000001	-463.69084	-13.261690000000272	921.93155	-497.26342	-4.838920000000144	904.3576500000003	-512.5332800000001	5.801590000000033	889.1218399999999	-519.21997	-13.841529999999693	951.26694	-411.12395999999995	-26.26458999999977	934.2324199999999	-452.67589000000004	-25.69080000000031	915.12283	-481.30266000000006	-18.180610000000343	897.6077	-495.69431000000003	-8.466910000000098	883.0150599999998	-501.82160999999996	-20.341370000000097	944.57771	-405.4019599999999	-35.98651999999947	925.1348800000001	-440.2015200000001	-37.27683999999954	908.25021	-461.95213	-32.64531000000079	894.7091499999999	-471.88221	-24.527680000000146	881.3419099999999	-476.98353999999995
137	0.567	-78.98710000000028	906.651	56.2195	3.980669999999918	897.43809	14.095220000000001	-63.613650000000234	493.4852	-72.96203999999999	-82.04435000000012	112.51758	-151.4699	-156.73197999999957	37.800239999999995	7.83386	-153.98359999999957	887.0124800000001	109.67607	-215.99878999999964	484.32600999999994	206.97213	-243.78243999999995	55.51624	309.0401699999999	-377.4553900000001	-17.11033	193.30110000000002	-117.1476900000007	1035.2786200000003	6.470729999999999	-160.59338000000025	1105.9174100000002	-44.19163	-209.90902000000006	1174.1055699999995	-100.3057	-262.4216000000006	1230.2192100000002	-159.79463	-319.2513600000002	1290.3345100000001	-222.48776999999995	-372.47232000000076	1344.7772699999998	-278.70055999999994	-490.97473999999966	1437.36288	-331.85437999999994	-274.67626999999993	1279.4720200000002	-216.53316	-192.33039000000008	1312.6691499999997	-307.36376	-89.85033000000021	1067.88613	-306.9009	67.22299000000021	908.40598	-438.40065	104.99474000000009	920.3835600000001	-443.57309999999995	128.60697999999957	923.3104699999999	-471.68276	143.51375000000007	921.3083200000001	-492.37768000000005	154.6261999999997	916.1827099999999	-510.58771	104.54093999999986	906.69389	-446.20544000000007	148.98848999999973	890.41031	-470.3190900000001	171.42828999999983	880.70579	-497.00733	178.52106999999978	880.12056	-516.2547	179.76581999999962	883.31106	-533.9768299999998	98.41047999999955	896.34861	-448.8815100000001	138.44974000000002	874.86986	-473.84590000000003	161.97234000000026	862.97012	-503.25534	170.0670599999994	861.63536	-526.61444	171.20422000000053	864.8206999999999	-546.07267	93.03009999999995	889.40902	-450.06831999999997	124.49145000000044	864.0006099999999	-473.21276999999986	143.94482000000062	852.32396	-499.10138000000006	151.1957199999997	850.34358	-521.76864	152.0009200000004	853.0102599999999	-540.12853	84.87147000000004	882.24628	-451.43464999999986	108.99751000000015	854.36583	-473.21579999999994	122.80063000000064	843.09114	-494.2443799999999	127.23111999999946	840.7157099999997	-510.9221	127.45040999999947	842.5422000000001	-527.26891	-327.12172999999984	1261.4138800000003	-185.41634	-407.71777999999995	1176.6255599999997	-132.42861	-211.04556000000048	1055.76063	-261.7674600000001	-3.2088800000001356	964.6626599999998	-386.64693	11.894019999999728	978.5983599999998	-420.91967	26.403949999999895	964.33176	-451.61467000000005	33.10073999999986	951.5233799999999	-472.72388000000007	35.76816999999937	938.38772	-490.09347	0.17580999999972846	971.6913299999999	-424.00489	-3.4482600000001185	962.62123	-476.22372999999993	-1.2303499999998166	945.01873	-507.77078	5.807550000000447	930.92203	-520.9185000000001	15.449999999999818	917.12725	-527.4399699999999	-8.74178000000029	963.6559500000001	-421.23395000000005	-17.101470000000518	950.46614	-470.66920000000005	-15.840269999999691	930.2133700000002	-504.55232	-7.905450000000201	912.70478	-520.1549400000001	2.374779999999191	897.3670199999999	-527.16439	-15.02070999999978	958.3044699999998	-418.00104	-28.171320000000378	942.1134800000002	-459.66616	-28.24269000000004	923.4128099999999	-488.56734	-21.210579999999936	905.96768	-503.2819299999999	-11.839159999999538	891.28251	-509.71364000000005	-21.592200000000048	951.6584100000001	-412.31067	-37.94499999999971	933.02355	-447.22673	-39.770590000000084	916.4832200000001	-469.20241	-35.49680999999964	903.0013699999998	-479.37063	-27.68757000000005	889.55686	-484.74311
